HIERARCHY
ROOT Hips
{
  OFFSET 0 0 0
  CHANNELS 6 Xposition Yposition Zposition Zrotation Xrotation Yrotation
  JOINT Spine
  {
    OFFSET 0 10.1816 0.131521
    CHANNELS 3 Zrotation Xrotation Yrotation
    JOINT Spine1
    {
      OFFSET 0 10.0835 -1.0008
      CHANNELS 3 Zrotation Xrotation Yrotation
      JOINT Spine2
      {
        OFFSET 0 9.10001 -1.37342
        CHANNELS 3 Zrotation Xrotation Yrotation
        JOINT Neck
        {
          OFFSET 0 16.6717 -2.51617
          CHANNELS 3 Zrotation Xrotation Yrotation
          JOINT Head
          {
            OFFSET 0 9.61788 1.68501
            CHANNELS 3 Zrotation Xrotation Yrotation
            End Site
            {
              OFFSET 0 17.8152 2.58499
            }
          }
        }
        JOINT LeftShoulder
        {
          OFFSET 4.57045 10.946 -2.62799
          CHANNELS 3 Zrotation Xrotation Yrotation
          JOINT LeftArm
          {
            OFFSET 10.5924 -0.524583 -2.23212
            CHANNELS 3 Zrotation Xrotation Yrotation
            JOINT LeftForeArm
            {
              OFFSET 27.8415 -8.94286e-05 3.74589e-05
              CHANNELS 3 Zrotation Xrotation Yrotation
              JOINT LeftHand
              {
                OFFSET 28.3288 -1.74407e-05 3.78045e-05
                CHANNELS 3 Zrotation Xrotation Yrotation
                End Site
                {
                  OFFSET 9.5334 -3.3924e-05 1.3937e-05
                }
              }
            }
          }
        }
        JOINT RightShoulder
        {
          OFFSET -4.56997 10.9462 -2.62802
          CHANNELS 3 Zrotation Xrotation Yrotation
          JOINT RightArm
          {
            OFFSET -10.5928 -0.524798 -2.2321
            CHANNELS 3 Zrotation Xrotation Yrotation
            JOINT RightForeArm
            {
              OFFSET -27.8415 -3.30792e-05 1.16763e-05
              CHANNELS 3 Zrotation Xrotation Yrotation
              JOINT RightHand
              {
                OFFSET -28.3288 0 5.5816e-05
                CHANNELS 3 Zrotation Xrotation Yrotation
                End Site
                {
                  OFFSET -9.5325 -1.63123e-05 1.67918e-05
                }
              }
            }
          }
        }
      }
    }
  }
  JOINT LeftUpLeg
  {
    OFFSET 8.20778 -6.75171 -1.59956
    CHANNELS 3 Zrotation Xrotation Yrotation
    JOINT LeftLeg
    {
      OFFSET 0 -44.3705 0.284643
      CHANNELS 3 Zrotation Xrotation Yrotation
      JOINT LeftFoot
      {
        OFFSET 0 -44.4279 -2.98219
        CHANNELS 3 Zrotation Xrotation Yrotation
        JOINT LeftToeBase
        {
          OFFSET 0 -8.72867 10.7106
          CHANNELS 3 Zrotation Xrotation Yrotation
          End Site
          {
            OFFSET 0 -0.000676683 9.27814
          }
        }
      }
    }
  }
  JOINT RightUpLeg
  {
    OFFSET -8.2078 -6.75166 -1.59956
    CHANNELS 3 Zrotation Xrotation Yrotation
    JOINT RightLeg
    {
      OFFSET 0 -44.3705 0.286156
      CHANNELS 3 Zrotation Xrotation Yrotation
      JOINT RightFoot
      {
        OFFSET 0 -44.4277 -2.98379
        CHANNELS 3 Zrotation Xrotation Yrotation
        JOINT RightToeBase
        {
          OFFSET 0 -8.72867 10.7106
          CHANNELS 3 Zrotation Xrotation Yrotation
          End Site
          {
            OFFSET 0 -0.000676369 9.27812
          }
        }
      }
    }
  }
}
MOTION
Frames:	8
Frame Time:	0.0333333
1.45787 118.619 53.5315 1.50998 24.927 -4.31645 -0.594972 10.3445 2.3002 -1.07391 9.90633 4.22722 -1.46825 9.88256 4.26414 1.8197 -14.498 -0.746488 2.53498 -12.7999 -2.37066 10.4566 -0.14302 -16.9745 -23.1994 -35.5543 -84.1648 -0.000203527 -7.03144e-06 -26.6585 34.9279 19.1279 -5.7926 -5.18354 0.885238 22.93 14.6622 -46.2018 68.973 -1.44885e-06 4.4332e-06 9.69146 -40.1277 24.6074 20.5663 53.679 -85.2717 54.5358 -122.426 88.439 125.804 2.83331 -25.2607 0.531987 2.30017e-06 1.33008 6.10945e-07 -77.5665 -82.7419 -83.99 47.1437 86.9896 -41.4132 -11.7808 -23.6636 -1.92596 -2.14883e-06 2.89388 -3.00189e-06 
1.6955 118.72 53.5067 1.60773 24.8281 -4.21207 -0.606332 10.2987 2.25301 -1.05813 9.84615 4.20572 -1.45182 9.82291 4.24225 1.69479 -14.4177 -0.737534 2.34202 -12.9333 -2.41497 10.2867 -0.112238 -17.0089 -23.265 -35.1072 -84.3046 -0.000202314 3.95274e-06 -27.0199 35.0817 19.4235 -6.12054 -5.24006 0.867859 22.7632 15.3551 -46.0238 69.7245 4.80284e-07 -3.21434e-06 9.72914 -40.6461 24.7082 20.9626 49.7554 -85.2301 50.9778 -110.335 88.4823 113.916 3.4103 -25.2356 0.635879 -7.91457e-07 1.3322 -1.57929e-06 -76.5762 -82.515 -82.7133 43.5225 86.8612 -37.8645 -11.656 -23.4352 -1.8789 -3.95654e-07 2.65232 1.04152e-06 
1.98359 118.984 53.3884 1.70246 24.6595 -4.07006 -0.569006 10.3025 2.19888 -1.01106 9.82986 4.17246 -1.40692 9.80899 4.20575 1.55794 -14.3468 -0.722657 2.08541 -13.0211 -2.44553 10.0775 -0.07431 -17.071 -23.3903 -34.4829 -84.3216 -0.000215233 -3.9457e-06 -27.504 35.2454 19.6208 -6.43709 -5.16657 0.878477 22.5612 16.1196 -45.6923 70.5579 2.2874e-06 -1.00973e-06 9.90023 -41.0605 24.6846 21.3825 43.0839 -85.1017 44.7006 -85.3208 88.4712 89.2373 4.09385 -25.1348 0.755394 9.66709e-07 1.40458 -4.38539e-07 -74.2013 -82.2997 -79.9305 36.6344 86.4817 -31.1512 -11.431 -23.0439 -1.79935 1.18718e-06 2.396 1.70255e-06 
2.32193 119.503 53.1679 1.80551 24.4522 -3.98332 -0.506957 10.3384 2.13207 -0.952185 9.84161 4.08593 -1.34689 9.82382 4.11399 1.42505 -14.2984 -0.702679 1.92178 -13.1284 -2.43635 9.8481 -0.0328749 -17.079 -23.3297 -33.6859 -84.1335 -0.000209895 -1.52962e-06 -27.7621 35.4197 19.7086 -6.80454 -5.08049 0.891278 22.3126 16.8672 -45.035 71.3759 3.46293e-06 -7.5364e-06 10.1866 -41.5158 24.5878 21.7705 34.2568 -84.7167 36.2142 -51.2484 87.9296 55.6006 4.74623 -24.9743 0.864888 1.17476e-06 1.56176 -6.05642e-07 -69.9329 -82.0927 -75.1996 27.8073 85.6242 -22.5499 -11.1959 -22.4438 -1.69884 -1.66743e-06 2.1974 -3.94406e-06 
2.70247 120.365 52.8425 1.94126 24.3148 -4.02902 -0.452403 10.3329 2.05291 -0.90067 9.81054 3.94466 -1.28618 9.7954 3.96417 1.27893 -14.1709 -0.676217 1.86034 -13.5041 -2.38883 9.47968 0.0335548 -17.2294 -22.8514 -32.7721 -83.5545 -0.000211334 -3.9699e-06 -27.5552 35.4775 19.8721 -7.40993 -4.99223 0.902689 21.9917 17.6463 -43.8941 72.1594 5.62075e-06 -1.0737e-05 10.54 -42.0642 24.4016 22.1745 25.2354 -83.904 27.4811 -28.2119 86.3414 33.1155 5.44079 -24.8828 0.982709 -2.51737e-06 1.92422 2.04317e-06 -63.8669 -81.8459 -68.6493 19.6153 84.0516 -14.5134 -10.8696 -21.5369 -1.55695 1.81958e-06 2.14245 -4.72814e-06 
3.14552 121.642 52.3696 2.06035 24.3464 -4.24103 -0.394226 10.2665 1.96483 -0.850215 9.71713 3.7832 -1.22534 9.70444 3.7933 1.24077 -13.9988 -0.643005 1.80847 -14.0996 -2.25924 9.249 0.076523 -17.5838 -22.4347 -31.8404 -82.6699 -0.000209773 -9.84095e-08 -27.0631 35.1909 20.0876 -7.91801 -4.7 0.960353 21.7463 18.3987 -42.4962 72.8169 3.1649e-06 1.36746e-06 11.0066 -42.465 24.1281 22.6615 17.5602 -82.7452 19.9608 -17.0399 83.731 22.5569 6.02106 -24.5737 1.06598 -2.37904e-06 2.52418 1.87018e-06 -56.4591 -81.4971 -60.7798 13.4791 81.5621 -8.30057 -10.1586 -20.1956 -1.32837 -1.25007e-06 2.18826 -1.50764e-06 
3.666 123.365 51.7014 2.09001 24.5461 -4.61403 -0.266667 10.2009 1.87471 -0.767615 9.6306 3.60016 -1.13571 9.62169 3.60065 1.27541 -13.8746 -0.594045 1.80231 -14.7759 -2.01431 9.20179 0.0866835 -17.9525 -22.4875 -31.0159 -81.7436 -0.000214518 4.89047e-06 -26.6051 34.574 20.2536 -7.8228 -4.28455 1.04928 21.6364 19.2608 -41.0984 73.4634 2.75178e-06 -1.52732e-06 11.5852 -42.7863 23.8054 23.078 11.7717 -81.424 14.0908 -10.9952 80.277 17.1495 6.18559 -23.3164 1.01923 -2.39129e-06 2.96312 1.89235e-06 -48.1667 -80.8774 -52.1949 9.56985 78.0461 -4.03572 -9.0284 -18.364 -1.02901 3.71083e-06 2.41517 -4.5808e-06 
4.24003 125.458 50.8597 2.1239 24.9151 -5.23856 -0.137575 10.1375 1.85452 -0.706092 9.55777 3.47827 -1.06881 9.5519 3.4707 1.32813 -13.7605 -0.52713 1.79145 -15.5406 -1.67599 9.1121 0.104493 -18.1581 -23.1286 -30.1625 -81.0793 -0.000202243 -1.35688e-06 -26.4583 33.9338 20.0958 -7.13245 -3.6706 1.17852 21.5266 20 -39.6593 74.0203 4.86179e-06 -2.70764e-06 12.1944 -43.1745 23.3928 23.1251 8.42389 -79.9362 10.5565 -7.48264 75.9901 14.4034 6.10762 -21.1137 0.879877 -7.56754e-07 2.86933 6.63775e-07 -40.4082 -79.8699 -44.4016 7.48451 73.6042 -1.17414 -7.88259 -15.916 -0.723703 1.99597e-06 3.00246 1.8326e-06 
